# Blender v2.90.0 OBJ File: 'MESH.blend'
# www.blender.org
mtllib MESH.mtl
o Cube
v 0.687391 0.352671 -1.505628
v 1.097756 0.257754 -2.317721
v 0.649261 1.345245 -1.621137
v 3.746836 -3.861257 -3.238176
v 4.178504 -3.935932 -4.123449
v 3.708706 -2.868683 -3.353686
v 4.140375 -2.943358 -4.238959
v 0.687391 0.352671 -1.505628
v 1.834278 -0.253312 -2.333717
v 0.649261 1.345245 -1.621137
v 1.059627 1.250328 -2.433231
v 0.649261 1.345245 -1.621137
v 1.402609 -0.178638 -1.448444
v 1.872407 -1.245886 -2.218208
v 1.440739 -1.171212 -1.332935
vt 0.000000 0.000000
vt 0.000000 0.000000
vt 0.000000 0.000000
vt 0.000000 0.000000
vt 0.000000 0.000000
vt 0.000000 0.000000
vt 0.000000 0.000000
vt 0.000000 0.000000
vt 0.000000 0.000000
vt 0.000000 0.000000
vt 0.000000 0.000000
vt 0.000000 0.000000
vn -0.8932 -0.0857 -0.4414
vn 0.0066 0.1158 0.9932
vn -0.1040 -0.1189 -0.9874
vn 0.8188 0.4458 0.3617
vn -0.8188 -0.4458 -0.3617
vn 0.7054 0.1086 0.7004
vn -0.7054 -0.1086 -0.7004
vn 0.8984 0.0847 0.4309
usemtl Material
s off
f 11/1/1 2/2/1 8/3/1 12/4/1
f 8/3/2 15/5/2 13/6/2 12/4/2
f 2/2/3 11/1/3 9/7/3 14/8/3
f 12/4/4 13/6/4 9/7/4 11/1/4
f 4/9/5 15/5/5 14/8/5 5/10/5
f 4/9/6 6/11/6 13/6/6 15/5/6
f 5/10/7 14/8/7 9/7/7 7/12/7
f 6/11/4 7/12/4 9/7/4 13/6/4
f 5/10/8 7/12/8 6/11/8 4/9/8
l 12 3
l 8 1
